<svg xmlns:xlink="http://www.w3.org/1999/xlink" xmlns="http://www.w3.org/2000/svg" width="589px" height="590px" viewBox="0 0 589 590" style="overflow: hidden; display: block; width: 589px; height: 590px;"><defs/><g style="pointer-events:visiblePainted" transform="translate(12.038240910497592 0)" image-rendering="auto" shape-rendering="auto"><g><path fill="none" stroke="rgb(169,169,169)" d="M 185,230 L 185,260" stroke-opacity="1" stroke-width="1" stroke-linecap="butt" stroke-linejoin="miter" stroke-miterlimit="10"/></g><g><path fill="none" stroke="rgb(169,169,169)" d="M 160,230 L 160,240 L 35,240 L 35,260" stroke-opacity="1" stroke-width="1" stroke-linecap="butt" stroke-linejoin="miter" stroke-miterlimit="10"/></g><g><path fill="none" stroke="rgb(169,169,169)" d="M 305.8333333333333,140 L 305.8333333333333,150 L 172.5,150 L 172.5,170" stroke-opacity="1" stroke-width="1" stroke-linecap="butt" stroke-linejoin="miter" stroke-miterlimit="10"/></g><g><path fill="none" stroke="rgb(169,169,169)" d="M 305.8333333333333,230 L 305.8333333333333,240 L 240,240 L 240,360" stroke-opacity="1" stroke-width="1" stroke-linecap="butt" stroke-linejoin="miter" stroke-miterlimit="10"/></g><g><path fill="none" stroke="rgb(169,169,169)" d="M 383.75,320 L 383.75,330 L 265,330 L 265,360" stroke-opacity="1" stroke-width="1" stroke-linecap="butt" stroke-linejoin="miter" stroke-miterlimit="10"/></g><g><path fill="none" stroke="rgb(169,169,169)" d="M 421.25,320 L 421.25,330 L 540,330 L 540,360" stroke-opacity="1" stroke-width="1" stroke-linecap="butt" stroke-linejoin="miter" stroke-miterlimit="10"/></g><g><path fill="none" stroke="rgb(169,169,169)" d="M 390,500 L 390,510 L 265,510 L 265,530" stroke-opacity="1" stroke-width="1" stroke-linecap="butt" stroke-linejoin="miter" stroke-miterlimit="10"/></g><g><path fill="none" stroke="rgb(169,169,169)" d="M 415,500 L 415,530" stroke-opacity="1" stroke-width="1" stroke-linecap="butt" stroke-linejoin="miter" stroke-miterlimit="10"/></g><g><path fill="none" stroke="rgb(169,169,169)" d="M 402.5,420 L 402.5,440" stroke-opacity="1" stroke-width="1" stroke-linecap="butt" stroke-linejoin="miter" stroke-miterlimit="10"/></g><g><path fill="none" stroke="rgb(169,169,169)" d="M 396.25,360 L 396.25,320" stroke-opacity="1" stroke-width="1" stroke-linecap="butt" stroke-linejoin="miter" stroke-miterlimit="10"/></g><g><path fill="none" stroke="rgb(169,169,169)" d="M 408.75,320 L 408.75,360" stroke-opacity="1" stroke-width="1" stroke-linecap="butt" stroke-linejoin="miter" stroke-miterlimit="10"/></g><g><path fill="none" stroke="rgb(169,169,169)" d="M 339.1666666666667,230 L 339.1666666666667,240 L 390,240 L 390,260" stroke-opacity="1" stroke-width="1" stroke-linecap="butt" stroke-linejoin="miter" stroke-miterlimit="10"/></g><g><path fill="none" stroke="rgb(169,169,169)" d="M 322.5,230 L 322.5,340 L 383.75,340 L 383.75,360" stroke-opacity="1" stroke-width="1" stroke-linecap="butt" stroke-linejoin="miter" stroke-miterlimit="10"/></g><g><path fill="none" stroke="rgb(169,169,169)" d="M 322.5,140 L 322.5,170" stroke-opacity="1" stroke-width="1" stroke-linecap="butt" stroke-linejoin="miter" stroke-miterlimit="10"/></g><g><path fill="none" stroke="rgb(169,169,169)" d="M 489.1666666666667,230 L 489.1666666666667,240 L 565,240 L 565,360" stroke-opacity="1" stroke-width="1" stroke-linecap="butt" stroke-linejoin="miter" stroke-miterlimit="10"/></g><g><path fill="none" stroke="rgb(169,169,169)" d="M 455.8333333333333,230 L 455.8333333333333,240 L 415,240 L 415,260" stroke-opacity="1" stroke-width="1" stroke-linecap="butt" stroke-linejoin="miter" stroke-miterlimit="10"/></g><g><path fill="none" stroke="rgb(169,169,169)" d="M 472.5,230 L 472.5,340 L 421.25,340 L 421.25,360" stroke-opacity="1" stroke-width="1" stroke-linecap="butt" stroke-linejoin="miter" stroke-miterlimit="10"/></g><g><path fill="none" stroke="rgb(169,169,169)" d="M 339.1666666666667,140 L 339.1666666666667,150 L 472.5,150 L 472.5,170" stroke-opacity="1" stroke-width="1" stroke-linecap="butt" stroke-linejoin="miter" stroke-miterlimit="10"/></g><g><path fill="none" stroke="rgb(169,169,169)" d="M 322.5,60 L 322.5,80" stroke-opacity="1" stroke-width="1" stroke-linecap="butt" stroke-linejoin="miter" stroke-miterlimit="10"/></g><g transform="translate(297.5 0)"><g transform="scale(2.78)">
            <svg svgBox="0 0 18 18" fill="msportalfx-svg-placeholder" role="presentation" focusable="false"><g><title/><defs><linearGradient id="ygc3_0" x1="9.88" x2="11.52" y1="8.59" y2="10.23" gradientTransform="rotate(-.08 -285.464 -1454.08)" gradientUnits="userSpaceOnUse"><stop offset="0" stop-color="#86d633"/><stop offset=".24" stop-color="#83d232"/><stop offset=".5" stop-color="#7cc52f"/><stop offset=".76" stop-color="#6fb02a"/><stop offset="1" stop-color="#5e9624"/></linearGradient><linearGradient id="ygc3_1" x1="6.18" x2="7.81" y1="8.59" y2="10.23"/><linearGradient id="ygc3_2" x1="2.48" x2="4.11" y1="8.59" y2="10.23"/></defs><title>Icon-networking-61</title><circle cx="12.74" cy="8.99" r="1.16" fill="url(#ygc3_0)"/><circle cx="9.04" cy="9" r="1.16" fill="url(#ygc3_1)"/><circle cx="5.34" cy="9" r="1.16" fill="url(#ygc3_2)"/><path fill="#50e6ff" d="M6.182 13.638l-.664.665a.3.3 0 01-.424 0L.18 9.404a.6.6 0 01-.001-.848l.663-.666 5.34 5.324a.3.3 0 010 .425z"/><path fill="#1490df" d="M5.418 3.708l.666.664a.3.3 0 010 .424L.838 10.057l-.666-.663a.6.6 0 01-.001-.849L4.994 3.71a.3.3 0 01.424 0z"/><path fill="#50e6ff" d="M17.157 7.88l.663.666a.6.6 0 010 .848l-4.915 4.9a.3.3 0 01-.424 0l-.664-.666a.3.3 0 010-.424l5.34-5.324z"/><path fill="#1490df" d="M17.818 9.387l-.665.664-5.247-5.261a.3.3 0 010-.425l.674-.67a.3.3 0 01.424 0l4.823 4.836a.6.6 0 01-.002.849z"/></g></svg>
        </g></g><g transform="translate(297.5 80)"><g transform="scale(1.0)">
            <svg svgBox="0 0 50 50" fill="msportalfx-svg-placeholder" role="presentation" focusable="false"><g><title/><path d="M49.7 25.7c.5-.5.4-1.3 0-1.8l-2.4-2.4L36.5 11c-.5-.5-1.2-.5-1.7 0s-.6 1.3 0 1.8l11.3 11.1c.5.5.5 1.3 0 1.8L34.6 37.2c-.5.5-.5 1.3 0 1.8s1.3.4 1.7 0L47 28.4l.1-.1 2.6-2.6zm-49.4 0c-.5-.5-.4-1.3 0-1.8l2.4-2.4L13.5 11c.5-.5 1.2-.5 1.7 0s.6 1.3 0 1.8L4.1 23.9c-.5.5-.5 1.3 0 1.8l11.3 11.5c.5.5.5 1.3 0 1.8s-1.3.4-1.7 0L2.8 28.5l-.1-.1-2.4-2.7z" fill="#3999C6"/><path d="M28.4 24.8c0 1.9-1.6 3.3-3.3 3.3-1.7 0-3.5-1.6-3.5-3.3s1.4-3.3 3.5-3.3c2 0 3.3 1.6 3.3 3.3z" fill="#7fba00"/></g></svg>
        </g></g><g transform="translate(147.5 170)"><g transform="scale(2.78)">
            <svg svgBox="0 0 18 18" fill="msportalfx-svg-placeholder" role="presentation" focusable="false"><g><title/><defs><linearGradient id="ygc3_3" x1="9.01" x2="9.01" y1="16.5" y2="1.5" gradientUnits="userSpaceOnUse"><stop offset="0" stop-color="#5e9641"/><stop offset=".34" stop-color="#6baa42"/><stop offset=".67" stop-color="#73b743"/><stop offset="1" stop-color="#76bb43"/></linearGradient></defs><title>Icon-networking-80</title><path fill="#ffca00" d="M15.89 2.91h1.27a.34.34 0 01.34.34v3.5a.34.34 0 01-.34.34h-1.27V2.91zm0 6.09h1.27a.34.34 0 01.34.34v5.86a.34.34 0 01-.34.34h-1.27V9z"/><rect width="13.76" height="15" x="2.13" y="1.5" fill="url(#ygc3_3)" rx=".69"/><path fill="#b4ec36" d="M5.9 12.9h-.71a.2.2 0 01-.19-.21V4.34a.19.19 0 01.19-.2h1.93a.19.19 0 01.19.2.2.2 0 01-.19.21H5.38v7.93h.52a.2.2 0 01.19.21.21.21 0 01-.19.21z"/><path fill="#b4ec36" d="M6 13.92H4.4a.2.2 0 01-.19-.21L4.08 3.38a.2.2 0 01.06-.15.16.16 0 01.13-.06h2.85v.41H4.47l.12 9.92H6zm6-.92h-1.59a.19.19 0 01-.14-.07.18.18 0 01-.06-.14V7.9a.19.19 0 01.19-.2h.91V5.45h.38v2.44a.2.2 0 01-.18.21h-.91v4.42H12z"/><rect width="6.14" height="3.11" x="7.07" y="2.29" fill="#365615" rx=".26"/><rect width="4.9" height="1.09" x="5.86" y="12.69" fill="#365615" rx=".26" transform="rotate(90 8.305 13.235)"/><rect width="4.9" height="1.09" x="3.99" y="12.71" fill="#365615" rx=".26" transform="rotate(90 6.44 13.26)"/><rect width="4.9" height="1.09" x="9.98" y="12.71" fill="#f2f2f2" rx=".26" transform="rotate(90 12.425 13.255)"/><ellipse cx="8.11" cy="8.06" fill="#f2f2f2" rx="1.04" ry="1.12"/><path fill="#3b3b3b" d="M2.11 12.25H.84a.34.34 0 01-.34-.3V6.09a.34.34 0 01.34-.34h1.27v6.5z"/></g></svg>
        </g></g><g transform="translate(160 260)"><g transform="scale(2.78)">
            <svg svgBox="0 0 18 18" fill="msportalfx-svg-placeholder" role="presentation" focusable="false"><g><title/><defs><linearGradient id="ygc3_4" x1="8.88" x2="8.88" y1="12.21" y2=".21" gradientUnits="userSpaceOnUse"><stop offset="0" stop-color="#0078d4"/><stop offset=".82" stop-color="#5ea0ef"/></linearGradient><linearGradient id="ygc3_5" x1="8.88" x2="8.88" y1="16.84" y2="12.21" gradientUnits="userSpaceOnUse"><stop offset=".15" stop-color="#ccc"/><stop offset="1" stop-color="#707070"/></linearGradient></defs><title>Icon-compute-21</title><rect width="18" height="12" x="-.12" y=".21" fill="url(#ygc3_4)" rx=".6"/><path fill="#50e6ff" d="M11.88 4.46v3.49l-3 1.76v-3.5l3-1.75z"/><path fill="#c3f1ff" d="M11.88 4.46l-3 1.76-3-1.76 3-1.75 3 1.75z"/><path fill="#9cebff" d="M8.88 6.22v3.49l-3-1.76V4.46l3 1.76z"/><path fill="#c3f1ff" d="M5.88 7.95l3-1.74v3.5l-3-1.76z"/><path fill="#9cebff" d="M11.88 7.95l-3-1.74v3.5l3-1.76z"/><path fill="url(#ygc3_5)" d="M12.49 15.84c-1.78-.28-1.85-1.56-1.85-3.63H7.11c0 2.07-.06 3.35-1.84 3.63a1 1 0 00-.89 1h9a1 1 0 00-.89-1z"/></g></svg>
        </g></g><g transform="translate(10 260)"><g transform="scale(2.78)">
            <svg svgBox="0 0 18 18" fill="msportalfx-svg-placeholder" role="presentation" focusable="false"><g><title/><defs><linearGradient id="ygc3_6" x1="9" x2="9" y1="15.83" y2="5.79" gradientUnits="userSpaceOnUse"><stop offset="0" stop-color="#32bedd"/><stop offset=".18" stop-color="#32caea"/><stop offset=".41" stop-color="#32d2f2"/><stop offset=".78" stop-color="#32d4f5"/></linearGradient></defs><title>Icon-networking-69</title><path fill="url(#ygc3_6)" d="M.5 5.79h17v9.48a.57.57 0 01-.57.57H1.07a.57.57 0 01-.57-.57V5.79z"/><path fill="#767676" d="M1.07 2.17h15.86a.57.57 0 01.57.57v3.05H.5V2.73a.57.57 0 01.57-.56z"/><circle cx="12.82" cy="10.19" r="1.38" fill="#f2f2f2"/><circle cx="9.06" cy="10.19" r="1.38" fill="#f2f2f2"/><circle cx="5.18" cy="10.19" r="1.38" fill="#f2f2f2"/><rect width="12.43" height="1.46" x="2.79" y="3.25" fill="#f2f2f2" rx=".28"/></g></svg>
        </g></g><g transform="translate(297.5 170)"><g transform="scale(2.78)">
            <svg svgBox="0 0 18 18" fill="msportalfx-svg-placeholder" role="presentation" focusable="false"><g><title/><defs><linearGradient id="ygc3_7" x1="9.01" x2="9.01" y1="16.5" y2="1.5" gradientUnits="userSpaceOnUse"><stop offset="0" stop-color="#5e9641"/><stop offset=".34" stop-color="#6baa42"/><stop offset=".67" stop-color="#73b743"/><stop offset="1" stop-color="#76bb43"/></linearGradient></defs><title>Icon-networking-80</title><path fill="#ffca00" d="M15.89 2.91h1.27a.34.34 0 01.34.34v3.5a.34.34 0 01-.34.34h-1.27V2.91zm0 6.09h1.27a.34.34 0 01.34.34v5.86a.34.34 0 01-.34.34h-1.27V9z"/><rect width="13.76" height="15" x="2.13" y="1.5" fill="url(#ygc3_7)" rx=".69"/><path fill="#b4ec36" d="M5.9 12.9h-.71a.2.2 0 01-.19-.21V4.34a.19.19 0 01.19-.2h1.93a.19.19 0 01.19.2.2.2 0 01-.19.21H5.38v7.93h.52a.2.2 0 01.19.21.21.21 0 01-.19.21z"/><path fill="#b4ec36" d="M6 13.92H4.4a.2.2 0 01-.19-.21L4.08 3.38a.2.2 0 01.06-.15.16.16 0 01.13-.06h2.85v.41H4.47l.12 9.92H6zm6-.92h-1.59a.19.19 0 01-.14-.07.18.18 0 01-.06-.14V7.9a.19.19 0 01.19-.2h.91V5.45h.38v2.44a.2.2 0 01-.18.21h-.91v4.42H12z"/><rect width="6.14" height="3.11" x="7.07" y="2.29" fill="#365615" rx=".26"/><rect width="4.9" height="1.09" x="5.86" y="12.69" fill="#365615" rx=".26" transform="rotate(90 8.305 13.235)"/><rect width="4.9" height="1.09" x="3.99" y="12.71" fill="#365615" rx=".26" transform="rotate(90 6.44 13.26)"/><rect width="4.9" height="1.09" x="9.98" y="12.71" fill="#f2f2f2" rx=".26" transform="rotate(90 12.425 13.255)"/><ellipse cx="8.11" cy="8.06" fill="#f2f2f2" rx="1.04" ry="1.12"/><path fill="#3b3b3b" d="M2.11 12.25H.84a.34.34 0 01-.34-.3V6.09a.34.34 0 01.34-.34h1.27v6.5z"/></g></svg>
        </g></g><g transform="translate(227.5 360)"><g transform="scale(2.78)">
            <svg svgBox="0 0 18 18" fill="msportalfx-svg-placeholder" role="presentation" focusable="false"><g><title/><defs><linearGradient id="ygc3_8" x1="8.88" x2="8.88" y1="12.21" y2=".21" gradientUnits="userSpaceOnUse"><stop offset="0" stop-color="#0078d4"/><stop offset=".82" stop-color="#5ea0ef"/></linearGradient><linearGradient id="ygc3_9" x1="8.88" x2="8.88" y1="16.84" y2="12.21" gradientUnits="userSpaceOnUse"><stop offset=".15" stop-color="#ccc"/><stop offset="1" stop-color="#707070"/></linearGradient></defs><title>Icon-compute-21</title><rect width="18" height="12" x="-.12" y=".21" fill="url(#ygc3_8)" rx=".6"/><path fill="#50e6ff" d="M11.88 4.46v3.49l-3 1.76v-3.5l3-1.75z"/><path fill="#c3f1ff" d="M11.88 4.46l-3 1.76-3-1.76 3-1.75 3 1.75z"/><path fill="#9cebff" d="M8.88 6.22v3.49l-3-1.76V4.46l3 1.76z"/><path fill="#c3f1ff" d="M5.88 7.95l3-1.74v3.5l-3-1.76z"/><path fill="#9cebff" d="M11.88 7.95l-3-1.74v3.5l3-1.76z"/><path fill="url(#ygc3_9)" d="M12.49 15.84c-1.78-.28-1.85-1.56-1.85-3.63H7.11c0 2.07-.06 3.35-1.84 3.63a1 1 0 00-.89 1h9a1 1 0 00-.89-1z"/></g></svg>
        </g></g><g transform="translate(377.5 260)"><g transform="scale(2.78)">
            <svg svgBox="0 0 18 18" fill="msportalfx-svg-placeholder" role="presentation" focusable="false"><g><title/><defs><linearGradient id="ygc3_10" x1="12.74" x2="12.74" y1="15.28" y2="8.52" gradientUnits="userSpaceOnUse"><stop offset="0" stop-color="#0078d4"/><stop offset=".82" stop-color="#5ea0ef"/></linearGradient><linearGradient id="ygc3_11" x1="12.74" x2="12.74" y1="17.89" y2="15.28" gradientUnits="userSpaceOnUse"><stop offset=".15" stop-color="#ccc"/><stop offset="1" stop-color="#707070"/></linearGradient></defs><title>Icon-compute-34</title><rect width="10.11" height="6.75" x=".79" y=".89" fill="#005ba1" rx=".34"/><path fill="#50e6ff" d="M7.53 3.28v1.97l-1.68.98V4.27l1.68-.99z"/><path fill="#c3f1ff" d="M7.53 3.28l-1.68.99-1.69-.99 1.69-.99 1.68.99z"/><path fill="#9cebff" d="M5.85 4.27v1.96l-1.69-.98V3.28l1.69.99z"/><rect width="10.11" height="6.75" x="4.76" y="4.76" fill="#0078d4" rx=".34"/><path fill="#50e6ff" d="M11.5 7.16v1.96l-1.68.99V8.14l1.68-.98z"/><path fill="#c3f1ff" d="M11.5 7.16l-1.68.98-1.69-.98 1.69-.99 1.68.99z"/><path fill="#9cebff" d="M9.82 8.14v1.97l-1.69-.99V7.16l1.69.98z"/><rect width="10.11" height="6.75" x="7.68" y="8.52" fill="url(#ygc3_10)" rx=".34"/><path fill="#50e6ff" d="M14.42 10.92v1.96l-1.68.99V11.9l1.68-.98z"/><path fill="#c3f1ff" d="M14.42 10.92l-1.68.99-1.69-.99 1.69-.99 1.68.99z"/><path fill="#9cebff" d="M12.74 11.91v1.96l-1.69-.99v-1.96l1.69.99z"/><path fill="#c3f1ff" d="M11.05 12.88l1.69-.98v1.97l-1.69-.99z"/><path fill="#9cebff" d="M14.42 12.88l-1.68-.98v1.97l1.68-.99z"/><path fill="url(#ygc3_11)" d="M14.76 17.32c-1-.16-1-.88-1-2h-2c0 1.16 0 1.88-1 2a.59.59 0 00-.5.57h5a.59.59 0 00-.5-.57z"/></g></svg>
        </g></g><g transform="translate(527.5 360)"><g transform="scale(2.78)">
            <svg svgBox="0 0 18 18" fill="msportalfx-svg-placeholder" role="presentation" focusable="false"><g><title/><defs><linearGradient id="ygc3_12" x1="8.88" x2="8.88" y1="12.21" y2=".21" gradientUnits="userSpaceOnUse"><stop offset="0" stop-color="#0078d4"/><stop offset=".82" stop-color="#5ea0ef"/></linearGradient><linearGradient id="ygc3_13" x1="8.88" x2="8.88" y1="16.84" y2="12.21" gradientUnits="userSpaceOnUse"><stop offset=".15" stop-color="#ccc"/><stop offset="1" stop-color="#707070"/></linearGradient></defs><title>Icon-compute-21</title><rect width="18" height="12" x="-.12" y=".21" fill="url(#ygc3_12)" rx=".6"/><path fill="#50e6ff" d="M11.88 4.46v3.49l-3 1.76v-3.5l3-1.75z"/><path fill="#c3f1ff" d="M11.88 4.46l-3 1.76-3-1.76 3-1.75 3 1.75z"/><path fill="#9cebff" d="M8.88 6.22v3.49l-3-1.76V4.46l3 1.76z"/><path fill="#c3f1ff" d="M5.88 7.95l3-1.74v3.5l-3-1.76z"/><path fill="#9cebff" d="M11.88 7.95l-3-1.74v3.5l3-1.76z"/><path fill="url(#ygc3_13)" d="M12.49 15.84c-1.78-.28-1.85-1.56-1.85-3.63H7.11c0 2.07-.06 3.35-1.84 3.63a1 1 0 00-.89 1h9a1 1 0 00-.89-1z"/></g></svg>
        </g></g><g transform="translate(377.5 360)"><g transform="scale(2.78)">
            <svg svgBox="0 0 18 18" fill="msportalfx-svg-placeholder" role="presentation" focusable="false"><g><title/><defs><linearGradient id="ygc3_14" x1="10.31" x2="10.31" y1="12.7" y2="6.83" gradientUnits="userSpaceOnUse"><stop offset="0" stop-color="#0078d4"/><stop offset=".82" stop-color="#5ea0ef"/></linearGradient><linearGradient id="ygc3_15" x1="10.31" x2="10.31" y1="14.97" y2="12.7" gradientUnits="userSpaceOnUse"><stop offset=".15" stop-color="#ccc"/><stop offset="1" stop-color="#707070"/></linearGradient></defs><title>Icon-compute-25</title><path fill="#0078d4" d="M2.12.5h1.97v.57H2.12zm14.51.57h.32v.31h.55V.5h-.87v.57zM1.41 16.89h-.28v-.32H.5v.93h.91v-.61zm15.54-.29v.29h-.32v.61h.87v-.9h-.55zM1.13 1.36v-.29h.28V.5H.5v.86h.63z"/><rect width="8.79" height="5.88" x="3.37" y="3.55" fill="#0078d4" rx=".29"/><path fill="#50e6ff" d="M9.23 5.64v1.71l-1.46.86V6.49l1.46-.85z"/><path fill="#c3f1ff" d="M9.23 5.64l-1.46.86-1.47-.86 1.47-.86 1.46.86z"/><path fill="#9cebff" d="M7.77 6.5v1.71L6.3 7.35V5.64l1.47.86z"/><rect width="8.79" height="5.88" x="5.91" y="6.83" fill="url(#ygc3_14)" rx=".29"/><path fill="#50e6ff" d="M11.77 8.91v1.71l-1.46.86V9.77l1.46-.86z"/><path fill="#c3f1ff" d="M11.77 8.91l-1.46.86-1.47-.86 1.47-.86 1.46.86z"/><path fill="#9cebff" d="M10.31 9.77v1.71l-1.47-.86V8.91l1.47.86z"/><path fill="#c3f1ff" d="M8.84 10.62l1.47-.85v1.71l-1.47-.86z"/><path fill="#9cebff" d="M11.77 10.62l-1.46-.85v1.71l1.46-.86z"/><path fill="url(#ygc3_15)" d="M12.07 14.48c-.87-.14-.9-.77-.9-1.78H9.44c0 1 0 1.64-.9 1.78a.51.51 0 00-.43.49h4.4a.51.51 0 00-.44-.49z"/><path fill="#0078d4" d="M5.07.5h1.97v.57H5.07zm2.94 0h1.97v.57H8.01zm2.95 0h1.97v.57h-1.97zm2.95 0h1.97v.57h-1.97zM2.14 16.89h1.97v.57H2.14zm2.94 0h1.97v.57H5.08zm2.95 0H10v.57H8.03zm2.95 0h1.97v.57h-1.97zm2.94 0h1.97v.57h-1.97zm3.01-14.84h.57v1.97h-.57zm0 2.94h.57v1.97h-.57zm0 2.95h.57v1.97h-.57zm0 2.94h.57v1.97h-.57zm0 2.95h.57v1.97h-.57zM.5 2.03h.57V4H.5zm0 2.95h.57v1.97H.5zm0 2.94h.57v1.97H.5zm0 2.95h.57v1.97H.5zm0 2.94h.57v1.97H.5z"/></g></svg>
        </g></g><g transform="translate(377.5 440)"><g transform="scale(2.78)">
            <svg svgBox="0 0 18 18" fill="msportalfx-svg-placeholder" role="presentation" focusable="false"><g><title/><defs><linearGradient id="ygc3_16" x1="9" x2="9" y1="19.85" y2="-1.02" gradientUnits="userSpaceOnUse"><stop offset="0" stop-color="#5e9624"/><stop offset=".02" stop-color="#5f9724"/><stop offset="1" stop-color="#76bc2d"/></linearGradient></defs><title>Icon-networking-62</title><path fill="url(#ygc3_16)" d="M.18 8.57L8.57.18a.6.6 0 01.86 0l8.39 8.39a.6.6 0 010 .86l-8.4 8.4a.6.6 0 01-.84 0l-8.4-8.4a.6.6 0 010-.86z"/><path fill="#b4ec36" d="M11.2 4L9.08 1.89a.12.12 0 00-.16 0L6.8 4a.1.1 0 00.08.18h1.24a.11.11 0 01.11.11v2a.11.11 0 00.11.11h1.32a.11.11 0 00.11-.11v-2a.11.11 0 01.11-.11h1.24A.1.1 0 0011.2 4zM4 6.61L1.9 8.74a.11.11 0 000 .15L4 11a.11.11 0 00.19-.08V9.69a.11.11 0 01.11-.11h2a.1.1 0 00.1-.11V8.15A.1.1 0 006.33 8h-2a.1.1 0 01-.11-.1V6.69A.11.11 0 004 6.61zM14.08 11l2.13-2.12a.11.11 0 000-.15l-2.13-2.12a.11.11 0 00-.18.08v1.25a.1.1 0 01-.11.1h-2a.1.1 0 00-.1.11v1.32a.1.1 0 00.1.11h2a.11.11 0 01.11.11v1.24a.11.11 0 00.18.07z"/><path d="M11.79 9a2.79 2.79 0 10-3.54 2.67v.95a1.71 1.71 0 101.57 0v-1A2.77 2.77 0 0011.79 9z" fill="#fff"/><circle cx="9.01" cy="8.99" r="1.62" fill="#5ea0ef"/></g></svg>
        </g></g><g transform="translate(240 530)"><g transform="scale(1.0)">
            <svg svgBox="0 0 50 50" fill="msportalfx-svg-placeholder" role="presentation" focusable="false"><g><title/><path d="M27.1 21.8h-4.2L19.7 50h10.6z" fill="#59b4d9"/><path d="M40.3 22.5C40.3 14 33.5 7.1 25 7.1S9.7 14 9.7 22.5c0 5.6 3 10.5 7.6 13.2.5-.8.9-1.6 1.3-2.3-3.7-2.2-6.2-6.2-6.2-10.9 0-7 5.7-12.7 12.7-12.7 7 0 12.7 5.7 12.7 12.7 0 4.6-2.5 8.7-6.2 10.9.4.7.9 1.5 1.3 2.3 4.4-2.7 7.4-7.6 7.4-13.2" opacity=".5" fill="#3e3e3e"/><path d="M13.7 41.9c.4-.8.9-1.6 1.3-2.4-5.9-3.4-9.8-9.8-9.8-17.1C5.2 11.6 14.1 2.7 25 2.7s19.8 8.9 19.8 19.8c0 7.3-4 13.6-9.8 17.1.4.8.9 1.6 1.3 2.4 6.7-3.9 11.2-11.1 11.2-19.4C47.5 10.1 37.4 0 25 0S2.5 10.1 2.5 22.5c0 8.2 4.6 15.5 11.2 19.4" opacity=".2" fill="#3e3e3e"/><circle cx="25" cy="22.6" r="6.8" fill="#0072c6"/></g></svg>
        </g></g><g transform="translate(390 530)"><g transform="scale(2.78)">
            <svg svgBox="0 0 18 18" fill="msportalfx-svg-placeholder" role="presentation" focusable="false"><g><title/><defs><linearGradient id="ygc3_17" x1="9" x2="9" y1="15.83" y2="5.79" gradientUnits="userSpaceOnUse"><stop offset="0" stop-color="#32bedd"/><stop offset=".18" stop-color="#32caea"/><stop offset=".41" stop-color="#32d2f2"/><stop offset=".78" stop-color="#32d4f5"/></linearGradient></defs><title>Icon-networking-69</title><path fill="url(#ygc3_17)" d="M.5 5.79h17v9.48a.57.57 0 01-.57.57H1.07a.57.57 0 01-.57-.57V5.79z"/><path fill="#767676" d="M1.07 2.17h15.86a.57.57 0 01.57.57v3.05H.5V2.73a.57.57 0 01.57-.56z"/><circle cx="12.82" cy="10.19" r="1.38" fill="#f2f2f2"/><circle cx="9.06" cy="10.19" r="1.38" fill="#f2f2f2"/><circle cx="5.18" cy="10.19" r="1.38" fill="#f2f2f2"/><rect width="12.43" height="1.46" x="2.79" y="3.25" fill="#f2f2f2" rx=".28"/></g></svg>
        </g></g><g transform="translate(447.5 170)"><g transform="scale(2.78)">
            <svg svgBox="0 0 18 18" fill="msportalfx-svg-placeholder" role="presentation" focusable="false"><g><title/><defs><linearGradient id="ygc3_18" x1="9.01" x2="9.01" y1="16.5" y2="1.5" gradientUnits="userSpaceOnUse"><stop offset="0" stop-color="#5e9641"/><stop offset=".34" stop-color="#6baa42"/><stop offset=".67" stop-color="#73b743"/><stop offset="1" stop-color="#76bb43"/></linearGradient></defs><title>Icon-networking-80</title><path fill="#ffca00" d="M15.89 2.91h1.27a.34.34 0 01.34.34v3.5a.34.34 0 01-.34.34h-1.27V2.91zm0 6.09h1.27a.34.34 0 01.34.34v5.86a.34.34 0 01-.34.34h-1.27V9z"/><rect width="13.76" height="15" x="2.13" y="1.5" fill="url(#ygc3_18)" rx=".69"/><path fill="#b4ec36" d="M5.9 12.9h-.71a.2.2 0 01-.19-.21V4.34a.19.19 0 01.19-.2h1.93a.19.19 0 01.19.2.2.2 0 01-.19.21H5.38v7.93h.52a.2.2 0 01.19.21.21.21 0 01-.19.21z"/><path fill="#b4ec36" d="M6 13.92H4.4a.2.2 0 01-.19-.21L4.08 3.38a.2.2 0 01.06-.15.16.16 0 01.13-.06h2.85v.41H4.47l.12 9.92H6zm6-.92h-1.59a.19.19 0 01-.14-.07.18.18 0 01-.06-.14V7.9a.19.19 0 01.19-.2h.91V5.45h.38v2.44a.2.2 0 01-.18.21h-.91v4.42H12z"/><rect width="6.14" height="3.11" x="7.07" y="2.29" fill="#365615" rx=".26"/><rect width="4.9" height="1.09" x="5.86" y="12.69" fill="#365615" rx=".26" transform="rotate(90 8.305 13.235)"/><rect width="4.9" height="1.09" x="3.99" y="12.71" fill="#365615" rx=".26" transform="rotate(90 6.44 13.26)"/><rect width="4.9" height="1.09" x="9.98" y="12.71" fill="#f2f2f2" rx=".26" transform="rotate(90 12.425 13.255)"/><ellipse cx="8.11" cy="8.06" fill="#f2f2f2" rx="1.04" ry="1.12"/><path fill="#3b3b3b" d="M2.11 12.25H.84a.34.34 0 01-.34-.3V6.09a.34.34 0 01.34-.34h1.27v6.5z"/></g></svg>
        </g></g><g transform="translate(295.1533441784515 46)"><text font-family="Arial" font-size="12px" font-style="normal" font-weight="normal" text-anchor="start" fill="rgb(0,0,0)" fill-opacity="1" dy="1em" transform="translate(0 0)">vmss-vnet</text></g><g transform="translate(288.4771377738339 126)"><text font-family="Arial" font-size="12px" font-style="normal" font-weight="normal" text-anchor="start" fill="rgb(0,0,0)" fill-opacity="1" dy="1em" transform="translate(0 0)">vmss-subnet</text></g><g transform="translate(140.14179327770694 216)"><text font-family="Arial" font-size="12px" font-style="normal" font-weight="normal" text-anchor="start" fill="rgb(0,0,0)" fill-opacity="1" dy="1em" transform="translate(0 0)">jumpbox-nic</text></g><g transform="translate(162.31320729668772 306)"><text font-family="Arial" font-size="12px" font-style="normal" font-weight="normal" text-anchor="start" fill="rgb(0,0,0)" fill-opacity="1" dy="1em" transform="translate(0 0)">jumpbox</text></g><g transform="translate(-12.038240910497592 306)"><text font-family="Arial" font-size="12px" font-style="normal" font-weight="normal" text-anchor="start" fill="rgb(0,0,0)" fill-opacity="1" dy="1em" transform="translate(0 0)">jumpbox-public-ip</text></g><g transform="translate(268.79727561096837 216)"><text font-family="Arial" font-size="12px" font-style="normal" font-weight="normal" text-anchor="start" fill="rgb(0,0,0)" fill-opacity="1" dy="1em" transform="translate(0 0)">terraformnetworkp...</text></g><g transform="translate(249.16189679769116 406)"><text font-family="Arial" font-size="12px" font-style="normal" font-weight="normal" text-anchor="start" fill="rgb(0,0,0)" fill-opacity="1" dy="1em" transform="translate(0 0)">0</text></g><g transform="translate(372.48051703138776 306)"><text font-family="Arial" font-size="12px" font-style="normal" font-weight="normal" text-anchor="start" fill="rgb(0,0,0)" fill-opacity="1" dy="1em" transform="translate(0 0)">vmscaleset</text></g><g transform="translate(549.1618967976912 406)"><text font-family="Arial" font-size="12px" font-style="normal" font-weight="normal" text-anchor="start" fill="rgb(0,0,0)" fill-opacity="1" dy="1em" transform="translate(0 0)">2</text></g><g transform="translate(344.445139302427 406)"><text font-family="Arial" font-size="12px" font-style="normal" font-weight="normal" text-anchor="start" fill="rgb(0,0,0)" fill-opacity="1" dy="1em" transform="translate(0 0)">BackEndAddressPool</text></g><g transform="translate(381.8266198515483 486)"><text font-family="Arial" font-size="12px" font-style="normal" font-weight="normal" text-anchor="start" fill="rgb(0,0,0)" fill-opacity="1" dy="1em" transform="translate(0 0)">vmss-lb</text></g><g transform="translate(216.28831139106663 576)"><text font-family="Arial" font-size="12px" font-style="normal" font-weight="normal" text-anchor="start" fill="rgb(0,0,0)" fill-opacity="1" dy="1em" transform="translate(0 0)">ssh-running-probe</text></g><g transform="translate(371.40829935808466 576)"><text font-family="Arial" font-size="12px" font-style="normal" font-weight="normal" text-anchor="start" fill="rgb(0,0,0)" fill-opacity="1" dy="1em" transform="translate(0 0)">PublicIPAddress</text></g><g transform="translate(418.79727561096837 216)"><text font-family="Arial" font-size="12px" font-style="normal" font-weight="normal" text-anchor="start" fill="rgb(0,0,0)" fill-opacity="1" dy="1em" transform="translate(0 0)">terraformnetworkp...</text></g></g></svg>